<?xml version="1.0" encoding="iso-8859-1"?>
<!-- Generator: Adobe Illustrator 19.0.0, SVG Export Plug-In . SVG Version: 6.00 Build 0)  -->
<svg version="1.1" id="Capa_1" xmlns="http://www.w3.org/2000/svg" xmlns:xlink="http://www.w3.org/1999/xlink" x="0px" y="0px"
	 viewBox="0 0 512 512" style="enable-background:new 0 0 512 512;" xml:space="preserve">
<g>
	<g>
		<path d="M362.787,317.044l-0.146-0.029c-0.044,0-215.464,0.454-215.464,0.454C132.25,319.183,121,331.883,121,347
			c0,17.364,14.286,30,30,30h210c15.659,0,30-12.576,30-30C391,332,379.911,319.373,362.787,317.044z"/>
	</g>
</g>
<g>
	<g>
		<path d="M352.152,107.498C328.803,48.333,266.986,4.307,264.364,2.549c-5.068-3.398-11.66-3.398-16.729,0
			c-2.622,1.758-64.438,45.784-87.817,105.008C153.974,122.571,151,137.527,151,152c0,28.711,11.235,57.92,33.296,86.689
			c10.999,14.665,18.428,31.376,22.659,48.653l98.137-0.203c4.237-17.192,11.627-33.798,22.524-48.318
			C349.765,209.92,361,180.711,361,152C361,137.527,358.026,122.571,352.152,107.498z"/>
	</g>
</g>
<g>
	<g>
		<path d="M160.302,256.692C134.286,222.767,121,187.464,121,152c0-18.193,3.647-36.812,10.869-55.327
			c0.613-1.556,1.49-2.939,2.146-4.471C60.507,93.295,0,153.236,0,227c0,16.069,2.915,32.402,8.438,47.227
			c2.095,5.61,7.31,9.448,13.301,9.756c6.138,0.615,11.572-2.974,14.209-8.335C46.201,254.891,67.914,242,91,242
			c28.05,0,51.473,19.417,58.013,45.461l26.343-0.055C171.788,276.125,167.005,265.641,160.302,256.692z"/>
	</g>
</g>
<g>
	<g>
		<path d="M378.003,92.203c0.626,1.467,1.467,2.791,2.054,4.279C387.338,115.159,391,133.792,391,152
			c0,35.449-13.315,70.811-39.565,105.073c-6.44,8.573-11.138,18.876-14.696,30.002l26.385-0.055
			C369.824,261.202,393.111,242,421,242c23.086,0,44.799,12.891,55.053,33.647c2.637,5.347,8.481,8.892,14.209,8.335
			c5.991-0.308,11.206-4.146,13.301-9.756C509.085,259.402,512,243.069,512,227C512,153.243,451.504,93.304,378.003,92.203z"/>
	</g>
</g>
<g>
	<g>
		<path d="M211,407v30c0,39.229,33.545,69.858,34.966,71.147C248.822,510.711,252.411,512,256,512s7.178-1.289,10.034-3.853
			C267.455,506.858,301,476.229,301,437v-30H211z"/>
	</g>
</g>
<g>
	<g>
		<path d="M181,437v-30h-30c-16.666,0-31.741-6.846-42.623-17.851C102.788,390.845,97.011,392,91,392
			c-7.31,0-14.561-1.245-20.405-3.501c-6.24-2.402-13.374-0.366-17.417,5.039c-4.014,5.391-3.955,12.803,0.146,18.135
			C72.821,436.927,103.729,452,136,452c16.161,0,31.494-4.076,45.39-10.827C181.328,439.754,181,438.441,181,437z"/>
	</g>
</g>
<g>
	<g>
		<path d="M458.822,393.538c-4.043-5.376-11.118-7.456-17.417-5.039C435.561,390.755,428.31,392,421,392
			c-6.013,0-11.788-1.155-17.377-2.851C392.741,400.154,377.666,407,361,407h-30v30c0,1.441-0.328,2.754-0.39,4.173
			C344.506,447.926,359.837,452,376,452c32.271,0,63.179-15.073,82.676-40.327C462.777,406.341,462.836,398.929,458.822,393.538z"/>
	</g>
</g>
<g>
</g>
<g>
</g>
<g>
</g>
<g>
</g>
<g>
</g>
<g>
</g>
<g>
</g>
<g>
</g>
<g>
</g>
<g>
</g>
<g>
</g>
<g>
</g>
<g>
</g>
<g>
</g>
<g>
</g>
</svg>
